# xmcd
#
# Track frame offsets:
# 150
# 18074
# 38219
# 67756
#
# Disc length: 1410 seconds
#
#
# Revision: 1
# Processed by: cddbd v1.5.2PL0 Copyright (c) Steve Scherf et al.
# Submitted via: FreeRIP 2.951 
#
DISCID=22058004
DTITLE=CJ Lewis - R to the A
DYEAR=1900
DGENRE=
TTITLE0=R To The A (Radio 7")
TTITLE1=R To The A (Album Mix)
TTITLE2=R To The A (Drum and Bass Mix)
TTITLE3=R To The A (Knuckleleads Mix)
EXTD=
EXTT0=
EXTT1=
EXTT2=
EXTT3=
PLAYORDER=
